<svg xmlns="http://www.w3.org/2000/svg" width="96" height="32" viewBox="0 0 96 32" fill="none">
  <g transform="translate(16 16) rotate(-90) translate(-12 -12)" stroke="currentColor" stroke-width="2" stroke-linecap="round" stroke-linejoin="round" fill="currentColor">
    <path d="M3.714 3.048a.498.498 0 0 0-.683.627l2.843 7.627a2 2 0 0 1 0 1.396l-2.842 7.627a.498.498 0 0 0 .682.627l18-8.5a.5.5 0 0 0 0-.904z"/>
  </g>

  <g transform="translate(36 4)" stroke="#ffffff" stroke-width="2" stroke-linecap="round" stroke-linejoin="round">
    <circle cx="12" cy="12" r="10"/>
    <path d="m15 9-6 6"/>
    <path d="m9 9 6 6"/>
  </g>

  <g transform="translate(68 4)" stroke="currentColor" stroke-width="2" stroke-linecap="round" stroke-linejoin="round">
    <path d="M2.7 10.3a2.41 2.41 0 0 0 0 3.41l7.59 7.59a2.41 2.41 0 0 0 3.41 0l7.59-7.59a2.41 2.41 0 0 0 0-3.41l-7.59-7.59a2.41 2.41 0 0 0-3.41 0Z"/>
  </g>
</svg>
